<svg xmlns="http://www.w3.org/2000/svg" viewBox="0 0 1080 1080"><rect x="363.27" y="522.51" width="354.53" height="33.45" rx="16.72" transform="translate(-222.98 540.15) rotate(-45)" fill='currentColor'></rect><path fill='currentColor' d="M591.68,666.06,419.89,837.84c-.33.33-.68.67-1,1-51.63,45.79-117.19,23.91-159.5-18.37-42.6-42.57-64.51-108.76-17.41-160.65l-.09-.08q1.83-1.61,3.71-3.48l13.36-13.36L306.6,595.2,413.71,488.09a16.72,16.72,0,0,0,0-23.65h0a16.72,16.72,0,0,0-23.65,0L217.58,636.92c-.29.29-.55.56-.83.87C98.17,769.5,311.21,981.88,442.44,862.59L615.33,689.71a16.72,16.72,0,0,0,0-23.65h0A16.72,16.72,0,0,0,591.68,666.06Z"></path><path fill='currentColor' d="M638.15,216.35,465.74,388.76a16.72,16.72,0,0,0,0,23.65h0a16.72,16.72,0,0,0,23.65,0L661.8,240c39.12-39.12,110.87-31,159.93,18,24.53,24.53,39.54,55.29,42.27,86.6,2.53,29.13-6.07,55.18-24.23,73.34L667.36,590.38a16.72,16.72,0,0,0,0,23.65h0A16.72,16.72,0,0,0,691,614L863.42,441.62c52.24-52.25,44.17-145-18-207.24S690.4,164.1,638.15,216.35Z"></path></svg>